<svg width="21" height="21" viewBox="0 0 21 21" fill="none" xmlns="http://www.w3.org/2000/svg">
<path d="M13.5 16V17C13.5 18.6569 12.1569 20 10.5 20C8.84315 20 7.5 18.6569 7.5 17V16M13.5 16H7.5M13.5 16H17.0905C17.473 16 17.6652 16 17.8201 15.9478C18.116 15.848 18.3475 15.6156 18.4473 15.3198C18.4997 15.1643 18.4997 14.9715 18.4997 14.5859C18.4997 14.4172 18.4995 14.3329 18.4863 14.2524C18.4614 14.1004 18.4024 13.9563 18.3126 13.8312C18.2651 13.7651 18.2047 13.7048 18.0858 13.5858L17.6963 13.1963C17.5706 13.0706 17.5 12.9001 17.5 12.7224V9C17.5 5.134 14.366 1.99999 10.5 2C6.63401 2.00001 3.5 5.13401 3.5 9V12.7224C3.5 12.9002 3.42924 13.0706 3.30357 13.1963L2.91406 13.5858C2.79477 13.7051 2.73504 13.765 2.6875 13.8312C2.59766 13.9564 2.53815 14.1004 2.5132 14.2524C2.5 14.3329 2.5 14.4172 2.5 14.586C2.5 14.9715 2.5 15.1642 2.55245 15.3197C2.65225 15.6156 2.8848 15.848 3.18066 15.9478C3.33556 16 3.52701 16 3.90956 16H7.5M16.5186 1.01367C17.8978 2.05299 18.9843 3.43177 19.6724 5.01574M4.48197 1.01367C3.10275 2.05299 2.0162 3.43177 1.32812 5.01574" stroke="white" stroke-width="2" stroke-linecap="round" stroke-linejoin="round"/>
</svg>
