<svg width="32" height="32" viewBox="0 0 32 32" fill="none" xmlns="http://www.w3.org/2000/svg">
<path d="M4 13.8882C4 9.62478 4 7.49305 4.50335 6.77589C5.00671 6.05873 7.0111 5.37263 11.0199 4.00041L11.7836 3.73897C13.8733 3.02367 14.9181 2.66602 16 2.66602C17.0819 2.66602 18.1267 3.02367 20.2164 3.73897L20.9801 4.00041C24.9889 5.37263 26.9933 6.05873 27.4966 6.77589C28 7.49305 28 9.62478 28 13.8882C28 14.5322 28 15.2306 28 15.9878C28 23.5053 22.348 27.1533 18.8019 28.7024C17.84 29.1226 17.359 29.3327 16 29.3327C14.641 29.3327 14.16 29.1226 13.1981 28.7024C9.65195 27.1533 4 23.5053 4 15.9878C4 15.2306 4 14.5322 4 13.8882Z" stroke="white" stroke-width="2"/>
<path d="M12.668 16.534L14.5727 18.6673L19.3346 13.334" stroke="white" stroke-width="2" stroke-linecap="round" stroke-linejoin="round"/>
</svg>
