<svg width="32" height="32" viewBox="0 0 32 32" fill="none" xmlns="http://www.w3.org/2000/svg">
<path fill-rule="evenodd" clip-rule="evenodd" d="M16 3.66602C15.123 3.66602 14.2602 3.9482 12.1075 4.68508L11.3437 4.94651C9.32695 5.63687 7.85613 6.14075 6.82346 6.56027C6.308 6.76967 5.93454 6.94515 5.67238 7.09739C5.54296 7.17255 5.45378 7.23457 5.39423 7.28298C5.34373 7.32403 5.32448 7.34728 5.32172 7.35067C5.31914 7.35485 5.30257 7.38256 5.27924 7.44806C5.25259 7.52288 5.22306 7.63013 5.19429 7.77943C5.13605 8.08161 5.09193 8.4967 5.06144 9.05657C5.00037 10.1782 5 11.7438 5 13.8882V15.9878C5 22.888 10.1599 26.284 13.5984 27.786C14.0937 28.0024 14.3797 28.1248 14.6981 28.2064C15.0022 28.2842 15.3733 28.3327 16 28.3327C16.6267 28.3327 16.9978 28.2842 17.3019 28.2064C17.6203 28.1248 17.9063 28.0024 18.4016 27.786C21.8401 26.284 27 22.888 27 15.9878V13.8882C27 11.7438 26.9996 10.1782 26.9386 9.05657C26.9081 8.4967 26.8639 8.08161 26.8057 7.77943C26.7769 7.63013 26.7474 7.52288 26.7208 7.44806C26.6974 7.38251 26.6808 7.35481 26.6783 7.35066C26.6755 7.34724 26.6562 7.324 26.6058 7.28298C26.5462 7.23457 26.457 7.17255 26.3276 7.09739C26.0655 6.94515 25.692 6.76967 25.1765 6.56027C24.1439 6.14075 22.6731 5.63687 20.6563 4.94651L19.8925 4.68508C17.7398 3.9482 16.877 3.66602 16 3.66602ZM11.6312 2.73417C13.5564 2.07479 14.75 1.66602 16 1.66602C17.25 1.66602 18.4436 2.07479 20.3688 2.73417C20.4253 2.75352 20.4824 2.77309 20.5402 2.79287L21.3387 3.06619C23.3138 3.74228 24.8381 4.26405 25.9293 4.70733C26.479 4.93063 26.9515 5.14691 27.332 5.36789C27.6982 5.58055 28.0656 5.8458 28.3152 6.20141C28.5619 6.5529 28.6894 6.98501 28.7696 7.40098C28.8529 7.83343 28.9032 8.3522 28.9356 8.94783C29 10.1305 29 11.7508 29 13.8524V15.9878C29 24.1226 22.856 28.0227 19.2022 29.6188L19.1661 29.6346C18.713 29.8325 18.2872 30.0186 17.7979 30.1439C17.2812 30.2761 16.7323 30.3327 16 30.3327C15.2677 30.3327 14.7188 30.2761 14.2021 30.1439C13.7128 30.0186 13.287 29.8325 12.8339 29.6346L12.7978 29.6188C9.14404 28.0227 3 24.1226 3 15.9878V13.8526C3 11.7509 3 10.1306 3.0644 8.94783C3.09683 8.3522 3.14708 7.83343 3.23042 7.40098C3.31058 6.98501 3.43814 6.5529 3.68484 6.20141C3.93443 5.8458 4.30179 5.58055 4.66798 5.36789C5.04849 5.14691 5.52105 4.93063 6.07071 4.70733C7.16187 4.26405 8.68617 3.74228 10.6613 3.06619L11.4598 2.79286C11.5176 2.77309 11.5747 2.75352 11.6312 2.73417ZM16 10.5333C15.8414 10.7687 15.646 11.1156 15.3551 11.6374L15.1804 11.9509C15.1674 11.9742 15.154 11.9985 15.1402 12.0237C14.9954 12.2868 14.7987 12.6441 14.4739 12.8907C14.1432 13.1418 13.7443 13.2296 13.4591 13.2923C13.4321 13.2983 13.406 13.304 13.3812 13.3097L13.0418 13.3864C12.4215 13.5268 12.035 13.6166 11.7753 13.7074C11.9359 13.9487 12.2054 14.2674 12.6427 14.7787L12.8741 15.0493C12.8911 15.0692 12.9089 15.0897 12.9272 15.1109C13.1242 15.339 13.3862 15.6423 13.5074 16.0319C13.6272 16.4173 13.5866 16.8161 13.5556 17.121C13.5527 17.1494 13.5499 17.1771 13.5473 17.2038L13.5123 17.5648C13.4499 18.2097 13.4114 18.6268 13.4125 18.9219C13.6687 18.8311 14.0198 18.6716 14.5555 18.425L14.8732 18.2787C14.8966 18.2679 14.9211 18.2564 14.9466 18.2445C15.2104 18.1211 15.5846 17.9459 16 17.9459C16.4154 17.9459 16.7896 18.1211 17.0534 18.2445C17.0789 18.2564 17.1034 18.2679 17.1268 18.2787L17.4445 18.425C17.9802 18.6716 18.3313 18.8311 18.5876 18.9219C18.5886 18.6268 18.5501 18.2097 18.4877 17.5648L18.4527 17.2038C18.4501 17.1771 18.4473 17.1495 18.4444 17.121C18.4134 16.8161 18.3728 16.4173 18.4926 16.0319C18.6138 15.6423 18.8758 15.339 19.0728 15.1109C19.0912 15.0897 19.1089 15.0692 19.1259 15.0493L19.3573 14.7787C19.7946 14.2674 20.0641 13.9487 20.2247 13.7074C19.965 13.6166 19.5785 13.5268 18.9582 13.3864L18.6188 13.3097C18.594 13.304 18.5679 13.2983 18.5409 13.2923C18.2557 13.2296 17.8568 13.1418 17.5261 12.8907C17.2013 12.6441 17.0046 12.2868 16.8599 12.0237C16.846 11.9985 16.8326 11.9742 16.8196 11.9509L16.6449 11.6374C16.354 11.1156 16.1586 10.7687 16 10.5333ZM18.8706 18.9996C18.8721 18.9997 18.8729 18.9997 18.8729 18.9997L18.8706 18.9996ZM13.1271 18.9997C13.1271 18.9997 13.1279 18.9997 13.1294 18.9996L13.1271 18.9997ZM14.5109 9.17914C14.7984 8.80363 15.2679 8.33268 16 8.33268C16.7321 8.33268 17.2016 8.80363 17.4891 9.17914C17.766 9.54073 18.0495 10.0494 18.3577 10.6025C18.3691 10.6228 18.3804 10.6432 18.3918 10.6636L18.5665 10.9771C18.6156 11.0651 18.6536 11.1332 18.6873 11.1915C18.7099 11.2307 18.7277 11.2603 18.742 11.2832C18.7644 11.2894 18.7928 11.2967 18.8291 11.3056C18.8918 11.3208 18.9647 11.3374 19.0602 11.359L19.3996 11.4358C19.4227 11.441 19.4458 11.4462 19.4688 11.4514C20.0647 11.5861 20.6209 11.7119 21.0409 11.8774C21.4959 12.0567 22.0457 12.3799 22.2576 13.0612C22.4661 13.7316 22.2094 14.3103 21.9502 14.7222C21.7066 15.1091 21.3306 15.5487 20.9221 16.0262C20.9072 16.0436 20.8923 16.0611 20.8773 16.0786L20.6459 16.3491C20.5809 16.4251 20.5308 16.4837 20.4883 16.5351C20.4534 16.5772 20.4293 16.6076 20.412 16.6306C20.4143 16.7048 20.4238 16.8094 20.4433 17.0109L20.4849 17.4398C20.5469 18.0788 20.6035 18.662 20.583 19.1214C20.5618 19.5986 20.4492 20.2373 19.8819 20.668C19.2983 21.111 18.6462 21.0246 18.1837 20.8921C17.7509 20.7681 17.2308 20.5285 16.6731 20.2716C16.6515 20.2617 16.6298 20.2517 16.6081 20.2417L16.2903 20.0953C16.2009 20.0542 16.1325 20.0227 16.0731 19.9965C16.0439 19.9836 16.0199 19.9734 16 19.9652C15.9801 19.9734 15.9561 19.9836 15.9269 19.9965C15.8675 20.0227 15.7991 20.0542 15.7097 20.0953L15.3919 20.2417C15.3702 20.2517 15.3485 20.2617 15.3268 20.2716C14.7692 20.5285 14.2491 20.7681 13.8163 20.8921C13.3538 21.0246 12.7017 21.111 12.1181 20.668C11.5508 20.2373 11.4382 19.5986 11.417 19.1214C11.3965 18.662 11.4531 18.0788 11.5151 17.4398C11.5173 17.4173 11.5195 17.3946 11.5217 17.3719L11.5567 17.0109C11.5762 16.8094 11.5857 16.7048 11.588 16.6306C11.5707 16.6076 11.5466 16.5772 11.5117 16.5351C11.4692 16.4837 11.4191 16.4251 11.3541 16.3491L11.1227 16.0786C11.1077 16.0611 11.0928 16.0436 11.0779 16.0262C10.6694 15.5487 10.2934 15.1091 10.0498 14.7222C9.79057 14.3103 9.53393 13.7316 9.7424 13.0612C9.95425 12.3799 10.5041 12.0567 10.9591 11.8774C11.3791 11.7119 11.9353 11.5861 12.5311 11.4514C12.5542 11.4462 12.5773 11.441 12.6004 11.4358L12.9398 11.359C13.0353 11.3374 13.1082 11.3208 13.1709 11.3056C13.2072 11.2967 13.2356 11.2894 13.258 11.2832C13.2723 11.2603 13.2901 11.2307 13.3127 11.1915C13.3464 11.1332 13.3844 11.0651 13.4335 10.9771L13.6082 10.6636C13.6196 10.6432 13.6309 10.6228 13.6423 10.6025C13.9505 10.0494 14.234 9.54073 14.5109 9.17914Z" fill="white"/>
</svg>
