<svg width="32" height="33" viewBox="0 0 32 33" fill="none" xmlns="http://www.w3.org/2000/svg">
<path d="M13.3738 12.7089C12.9832 12.3184 12.3501 12.3184 11.9596 12.7089C11.569 13.0994 11.569 13.7326 11.9596 14.1231L14.5858 16.7493L11.9596 19.3755C11.5691 19.7661 11.5691 20.3992 11.9596 20.7898C12.3501 21.1803 12.9833 21.1803 13.3738 20.7898L16 18.1636L18.6262 20.7897C19.0167 21.1803 19.6499 21.1803 20.0404 20.7897C20.4309 20.3992 20.4309 19.766 20.0404 19.3755L17.4142 16.7493L20.0404 14.1231C20.431 13.7326 20.431 13.0994 20.0404 12.7089C19.6499 12.3184 19.0168 12.3184 18.6262 12.7089L16 15.3351L13.3738 12.7089Z" fill="white"/>
<path fill-rule="evenodd" clip-rule="evenodd" d="M16 2.41602C14.75 2.41602 13.5564 2.82479 11.6312 3.48417L10.6613 3.8162C8.68616 4.49228 7.16187 5.01405 6.07071 5.45733C5.52105 5.68063 5.04849 5.89691 4.66798 6.11789C4.30179 6.33055 3.93443 6.5958 3.68484 6.9514C3.43814 7.3029 3.31058 7.73501 3.23042 8.15098C3.14708 8.58343 3.09683 9.1022 3.0644 9.69783C3 10.8805 3 12.5007 3 14.6022V16.7378C3 24.8726 9.14404 28.7727 12.7978 30.3688L12.8339 30.3846C13.287 30.5825 13.7128 30.7686 14.2021 30.8939C14.7188 31.0261 15.2677 31.0827 16 31.0827C16.7323 31.0827 17.2812 31.0261 17.7979 30.8939C18.2872 30.7686 18.713 30.5825 19.1661 30.3846L19.2022 30.3688C22.856 28.7727 29 24.8726 29 16.7378V14.6024C29 12.5008 29 10.8805 28.9356 9.69783C28.9032 9.1022 28.8529 8.58343 28.7696 8.15098C28.6894 7.73501 28.5619 7.3029 28.3152 6.9514C28.0656 6.5958 27.6982 6.33055 27.332 6.11789C26.9515 5.89691 26.479 5.68063 25.9293 5.45733C24.8381 5.01405 23.3138 4.49228 21.3387 3.81619L20.3688 3.48417C18.4436 2.82479 17.25 2.41602 16 2.41602ZM12.1075 5.43508C14.2602 4.6982 15.123 4.41602 16 4.41602C16.877 4.41602 17.7398 4.6982 19.8925 5.43508L20.6563 5.69651C22.6731 6.38687 24.1439 6.89075 25.1765 7.31027C25.692 7.51967 26.0655 7.69515 26.3276 7.84739C26.457 7.92255 26.5462 7.98457 26.6058 8.03298C26.6562 8.074 26.6755 8.09724 26.6783 8.10066C26.6808 8.10481 26.6974 8.13251 26.7208 8.19806C26.7474 8.27288 26.7769 8.38013 26.8057 8.52943C26.8639 8.83161 26.9081 9.2467 26.9386 9.80657C26.9996 10.9282 27 12.4938 27 14.6382V16.7378C27 23.638 21.8401 27.034 18.4016 28.536C17.9063 28.7524 17.6203 28.8748 17.3019 28.9563C16.9978 29.0342 16.6267 29.0827 16 29.0827C15.3733 29.0827 15.0022 29.0342 14.6981 28.9563C14.3797 28.8748 14.0937 28.7524 13.5984 28.536C10.1599 27.034 5 23.638 5 16.7378V14.6382C5 12.4938 5.00037 10.9282 5.06144 9.80657C5.09193 9.2467 5.13605 8.83161 5.19429 8.52943C5.22306 8.38013 5.25259 8.27288 5.27924 8.19806C5.30257 8.13255 5.31914 8.10485 5.32172 8.10067C5.32448 8.09728 5.34373 8.07403 5.39423 8.03298C5.45378 7.98457 5.54296 7.92255 5.67238 7.84739C5.93454 7.69515 6.308 7.51967 6.82346 7.31027C7.85613 6.89074 9.32695 6.38687 11.3437 5.69651L12.1075 5.43508Z" fill="white"/>
</svg>
