<svg width="32" height="33" viewBox="0 0 32 33" fill="none" xmlns="http://www.w3.org/2000/svg">
<path d="M4 14.6382C4 10.3748 4 8.24305 4.50335 7.52589C5.00671 6.80873 7.0111 6.12263 11.0199 4.75041L11.7836 4.48897C13.8733 3.77367 14.9181 3.41602 16 3.41602C17.0819 3.41602 18.1267 3.77367 20.2164 4.48897L20.9801 4.75041C24.9889 6.12263 26.9933 6.80873 27.4966 7.52589C28 8.24305 28 10.3748 28 14.6382C28 15.2822 28 15.9806 28 16.7378C28 24.2553 22.348 27.9033 18.8019 29.4524C17.84 29.8726 17.359 30.0827 16 30.0827C14.641 30.0827 14.16 29.8726 13.1981 29.4524C9.65195 27.9033 4 24.2553 4 16.7378C4 15.9806 4 15.2822 4 14.6382Z" stroke="white" stroke-width="2"/>
<path d="M16 11.416V16.7493" stroke="white" stroke-width="2" stroke-linecap="round"/>
<circle cx="16.0013" cy="20.7493" r="1.33333" fill="white"/>
</svg>
