<svg width="16" height="16" viewBox="0 0 16 16" fill="none" xmlns="http://www.w3.org/2000/svg">
<path d="M3.33325 6.61523C3.33325 9.84978 6.1629 12.5246 7.41538 13.5501C7.59463 13.6969 7.68533 13.7712 7.81906 13.8088C7.92319 13.8381 8.07645 13.8381 8.18058 13.8088C8.31456 13.7711 8.40463 13.6976 8.58455 13.5502C9.83703 12.5247 12.6665 9.85008 12.6665 6.61553C12.6665 5.39145 12.1749 4.21737 11.2997 3.35181C10.4246 2.48626 9.23765 2 7.99997 2C6.7623 2 5.57526 2.48634 4.70009 3.35189C3.82492 4.21744 3.33325 5.39116 3.33325 6.61523Z" stroke="#6E34B8" stroke-width="1.33333" stroke-linecap="round" stroke-linejoin="round"/>
<path d="M6.66658 6C6.66658 6.73638 7.26354 7.33333 7.99992 7.33333C8.7363 7.33333 9.33325 6.73638 9.33325 6C9.33325 5.26362 8.7363 4.66667 7.99992 4.66667C7.26354 4.66667 6.66658 5.26362 6.66658 6Z" stroke="#6E34B8" stroke-width="1.33333" stroke-linecap="round" stroke-linejoin="round"/>
</svg>
