<svg width="21" height="18" viewBox="0 0 21 18" fill="none" xmlns="http://www.w3.org/2000/svg">
<path d="M8 0.75H12C15.7712 0.75 17.6569 0.75 18.8284 1.92157C19.672 2.76511 19.9082 3.97882 19.9743 6H0.0257164C0.0918467 3.97882 0.328032 2.76511 1.17157 1.92157C2.34315 0.75 4.22876 0.75 8 0.75Z" fill="white"/>
<path fill-rule="evenodd" clip-rule="evenodd" d="M19.9995 9.56752L19.591 9.15901C18.7123 8.28033 17.2877 8.28033 16.409 9.15901L15.6076 9.96045C15.2878 9.10728 14.4648 8.5 13.5 8.5C12.2574 8.5 11.25 9.50736 11.25 10.75V12.5138C10.7601 12.5683 10.2847 12.7834 9.90901 13.159C9.03033 14.0377 9.03033 15.4623 9.90901 16.341L10.318 16.75H8C4.22876 16.75 2.34315 16.75 1.17157 15.5784C0 14.4069 0 12.5212 0 8.75C0 8.30807 0 7.89203 0.00188529 7.5H19.9981C20 7.89203 20 8.30807 20 8.75C20 9.03296 20 9.3053 19.9995 9.56752ZM4 12C3.58579 12 3.25 12.3358 3.25 12.75C3.25 13.1642 3.58579 13.5 4 13.5H8C8.41421 13.5 8.75 13.1642 8.75 12.75C8.75 12.3358 8.41421 12 8 12H4Z" fill="white"/>
<path fill-rule="evenodd" clip-rule="evenodd" d="M13.5 10C13.9142 10 14.25 10.3358 14.25 10.75V14.9393L14.9697 14.2197C15.2626 13.9268 15.7374 13.9268 16.0303 14.2197C16.3232 14.5126 16.3232 14.9874 16.0303 15.2803L14.0303 17.2803C13.7374 17.5732 13.2626 17.5732 12.9697 17.2803L10.9697 15.2803C10.6768 14.9874 10.6768 14.5126 10.9697 14.2197C11.2626 13.9268 11.7374 13.9268 12.0303 14.2197L12.75 14.9393V10.75C12.75 10.3358 13.0858 10 13.5 10ZM17.4697 10.2197C17.7626 9.92678 18.2374 9.92678 18.5303 10.2197L20.5303 12.2197C20.8232 12.5126 20.8232 12.9874 20.5303 13.2803C20.2374 13.5732 19.7626 13.5732 19.4697 13.2803L18.75 12.5607V16.75C18.75 17.1642 18.4142 17.5 18 17.5C17.5858 17.5 17.25 17.1642 17.25 16.75V12.5607L16.5303 13.2803C16.2374 13.5732 15.7626 13.5732 15.4697 13.2803C15.1768 12.9874 15.1768 12.5126 15.4697 12.2197L17.4697 10.2197Z" fill="white"/>
</svg>
