<svg width="12" height="11" viewBox="0 0 12 11" fill="none" xmlns="http://www.w3.org/2000/svg">
<path d="M1.1665 4.16818C1.00988 4.02334 1.09496 3.76149 1.30681 3.73637L4.30863 3.38032C4.39497 3.37009 4.46997 3.31587 4.50638 3.23691L5.77251 0.491988C5.86187 0.298268 6.13726 0.298231 6.22662 0.491951L7.49275 3.23685C7.52916 3.31581 7.60367 3.37017 7.69001 3.38041L10.692 3.73637C10.9038 3.76149 10.9887 4.02342 10.8321 4.16826L8.61299 6.22077C8.54915 6.27981 8.52073 6.36767 8.53768 6.45295L9.12661 9.41783C9.16819 9.62707 8.9455 9.7892 8.75935 9.685L6.12165 8.20815C6.04578 8.16568 5.95361 8.16588 5.87774 8.20834L3.23977 9.68462C3.05361 9.78882 2.83051 9.62707 2.87209 9.41782L3.46112 6.45314C3.47807 6.36786 3.44972 6.27979 3.38588 6.22076L1.1665 4.16818Z" fill="#6E34B8" stroke="#6E34B8" stroke-width="0.666674" stroke-linecap="round" stroke-linejoin="round"/>
</svg>
