<svg width="16" height="15" viewBox="0 0 16 15" fill="none" xmlns="http://www.w3.org/2000/svg">
<path d="M8 3.125V5M8 3.125C8 2.08947 8.83947 1.25 9.875 1.25C10.9105 1.25 11.75 2.08947 11.75 3.125C11.75 4.16053 10.9105 5 9.875 5M8 3.125C8 2.08947 7.16053 1.25 6.125 1.25C5.08947 1.25 4.25 2.08947 4.25 3.125C4.25 4.16053 5.08947 5 6.125 5M8 5H9.875M8 5H6.125M8 5V9.5M9.875 5H12.3501C13.1902 5 13.6097 5 13.9305 5.16349C14.2128 5.3073 14.4429 5.5366 14.5867 5.81885C14.75 6.1394 14.75 6.55924 14.75 7.39768V9.5M6.125 5H3.65015C2.81007 5 2.38972 5 2.06885 5.16349C1.7866 5.3073 1.5573 5.5366 1.41349 5.81885C1.25 6.13971 1.25 6.56007 1.25 7.40015V9.5M1.25 9.5V11.6001C1.25 12.4402 1.25 12.86 1.41349 13.1809C1.5573 13.4632 1.7866 13.6929 2.06885 13.8367C2.3894 14 2.80925 14 3.64768 14H8M1.25 9.5H8M8 9.5V14M8 9.5H14.75M8 14H12.3523C13.1908 14 13.61 14 13.9305 13.8367C14.2128 13.6929 14.4429 13.4632 14.5867 13.1809C14.75 12.8604 14.75 12.4411 14.75 11.6027V9.5" stroke="#6E34B8" stroke-linecap="round" stroke-linejoin="round"/>
</svg>
