<svg width="16" height="16" viewBox="0 0 16 16" fill="none" xmlns="http://www.w3.org/2000/svg">
<g id="Arrow / Arrow_Reload_02">
<path id="Vector" d="M9.33333 10.6667H12.6667V14M6.66667 5.33333H3.33333V2M12.945 6.00227C12.5712 5.07711 11.9454 4.27536 11.1387 3.68815C10.3319 3.10094 9.37678 2.75168 8.38151 2.68034C7.38624 2.609 6.39071 2.81827 5.50846 3.28441C4.62622 3.75055 3.89255 4.45502 3.39062 5.31742M3.05469 9.99805C3.42848 10.9232 4.05431 11.725 4.86105 12.3122C5.66779 12.8994 6.62392 13.2482 7.61919 13.3195C8.61445 13.3909 9.60917 13.1816 10.4914 12.7155C11.3737 12.2494 12.1068 11.545 12.6088 10.6826" stroke="#6E34B8" stroke-width="1.33333" stroke-linecap="round" stroke-linejoin="round"/>
</g>
</svg>
