<svg width="25" height="24" viewBox="0 0 25 24" fill="none" xmlns="http://www.w3.org/2000/svg">
<g id="apple">
<path id="bg" d="M23.4025 12C23.4025 17.796 18.7136 22.5 12.9245 22.5C7.13544 22.5 2.44653 17.796 2.44653 12C2.44653 6.19875 7.13544 1.5 12.9245 1.5C18.7136 1.5 23.4025 6.19875 23.4025 12Z" fill="#283544"/>
<path id="apple_2" d="M17.8358 9.34304C17.7786 9.37647 16.4175 10.0819 16.4175 11.6459C16.4817 13.4296 18.1352 14.0551 18.1635 14.0551C18.1352 14.0885 17.9139 14.9072 17.2585 15.7654C16.7383 16.5047 16.1609 17.25 15.2842 17.25C14.4502 17.25 14.1508 16.7573 13.1886 16.7573C12.1552 16.7573 11.8628 17.25 11.0716 17.25C10.1949 17.25 9.57473 16.4647 9.02619 15.7324C8.31355 14.7739 7.70783 13.2698 7.68645 11.8256C7.67204 11.0603 7.82916 10.308 8.22802 9.66904C8.79097 8.77699 9.796 8.17143 10.8935 8.15146C11.7345 8.12498 12.4829 8.6906 12.9961 8.6906C13.4879 8.6906 14.4074 8.15146 15.4478 8.15146C15.8969 8.1519 17.0944 8.27822 17.8358 9.34304ZM12.925 7.99866C12.7753 7.29978 13.1886 6.60089 13.5735 6.15508C14.0653 5.61594 14.8421 5.25 15.512 5.25C15.5547 5.94889 15.2837 6.63432 14.7993 7.13352C14.3647 7.67266 13.6163 8.07853 12.925 7.99866Z" fill="white"/>
</g>
</svg>
