<svg width="25" height="24" viewBox="0 0 25 24" fill="none" xmlns="http://www.w3.org/2000/svg">
<g id="google">
<path id="vector" d="M23.3533 12.2333C23.3533 11.37 23.282 10.74 23.1276 10.0867H13.0892V13.9833H18.9815C18.8628 14.9517 18.2213 16.41 16.7956 17.3899L16.7757 17.5204L19.9496 19.9351L20.1695 19.9567C22.1891 18.125 23.3533 15.43 23.3533 12.2333" fill="#4285F4"/>
<path id="vector_2" d="M13.0885 22.5001C15.9753 22.5001 18.3987 21.5667 20.1689 19.9567L16.795 17.39C15.8922 18.0083 14.6804 18.44 13.0885 18.44C10.2612 18.44 7.86147 16.6083 7.00605 14.0767L6.88066 14.0871L3.58033 16.5955L3.53717 16.7133C5.29536 20.1433 8.90682 22.5001 13.0885 22.5001Z" fill="#34A853"/>
<path id="vector_3" d="M7.0066 14.0767C6.78089 13.4234 6.65026 12.7233 6.65026 12C6.65026 11.2767 6.78089 10.5767 6.99472 9.92337L6.98874 9.78423L3.64705 7.2356L3.53771 7.28667C2.81308 8.71002 2.39728 10.3084 2.39728 12C2.39728 13.6917 2.81308 15.29 3.53771 16.7133L7.0066 14.0767" fill="#FBBC05"/>
<path id="vector_4" d="M13.0886 5.55997C15.0963 5.55997 16.4505 6.41164 17.2227 7.12335L20.2402 4.23C18.387 2.53834 15.9754 1.5 13.0886 1.5C8.90685 1.5 5.29537 3.85665 3.53717 7.28662L6.99419 9.92332C7.8615 7.39166 10.2612 5.55997 13.0886 5.55997" fill="#EB4335"/>
</g>
</svg>
