<svg width="20" height="20" viewBox="0 0 20 20" fill="none" xmlns="http://www.w3.org/2000/svg">
<g id="File / Cloud_Upload" clip-path="url(#clip0_260_4656)">
<path id="Vector" d="M10.0007 13.3332V8.33317M10.0007 8.33317L7.50065 9.99984M10.0007 8.33317L12.5006 9.99984M19.1673 12.4998C19.1673 10.6589 17.6749 9.1665 15.834 9.1665C15.8143 9.1665 15.795 9.16668 15.7754 9.16702C15.3713 6.33986 12.9396 4.1665 10.0007 4.1665C7.67011 4.1665 5.65914 5.5332 4.72477 7.50885C2.55237 7.65104 0.833984 9.45802 0.833984 11.6664C0.833984 13.9676 2.69946 15.8332 5.00065 15.8332L15.834 15.8332C17.6749 15.8332 19.1673 14.3408 19.1673 12.4998Z" stroke="#C1C2C3" stroke-width="2" stroke-linecap="round" stroke-linejoin="round"/>
</g>
<defs>
<clipPath id="clip0_260_4656">
<rect width="20" height="20" fill="white"/>
</clipPath>
</defs>
</svg>
