<svg width="25" height="25" viewBox="0 0 25 25" fill="none" xmlns="http://www.w3.org/2000/svg">
<g id="File / File_Document">
<path id="Vector" d="M9.5 17.7402H15.5M9.5 14.7402H15.5M13.5004 3.74111C13.4048 3.74023 13.2974 3.74023 13.1747 3.74023H8.7002C7.58009 3.74023 7.01962 3.74023 6.5918 3.95822C6.21547 4.14997 5.90973 4.45571 5.71799 4.83203C5.5 5.25985 5.5 5.82032 5.5 6.94043V18.5404C5.5 19.6605 5.5 20.2203 5.71799 20.6481C5.90973 21.0244 6.21547 21.3307 6.5918 21.5225C7.01921 21.7402 7.579 21.7402 8.69694 21.7402L16.3031 21.7402C17.421 21.7402 17.98 21.7402 18.4074 21.5225C18.7837 21.3307 19.0905 21.0244 19.2822 20.6481C19.5 20.2207 19.5 19.6617 19.5 18.5438V10.0659C19.5 9.94325 19.4999 9.83577 19.499 9.74023M13.5004 3.74111C13.7858 3.74371 13.9657 3.7543 14.1382 3.7957C14.3423 3.8447 14.5379 3.9255 14.7168 4.03516C14.9186 4.1588 15.0918 4.33205 15.4375 4.67773L18.563 7.80322C18.9089 8.14912 19.0809 8.3216 19.2046 8.52343C19.3142 8.70237 19.3953 8.89749 19.4443 9.10156C19.4857 9.27402 19.4964 9.45478 19.499 9.74023M13.5004 3.74111L13.5 6.54044C13.5 7.66055 13.5 8.22039 13.718 8.64821C13.9097 9.02453 14.2155 9.33071 14.5918 9.52246C15.0192 9.74023 15.579 9.74023 16.6969 9.74023H19.499" stroke="white" stroke-width="2" stroke-linecap="round" stroke-linejoin="round"/>
</g>
</svg>
