<svg width="24" height="25" viewBox="0 0 24 25" fill="none" xmlns="http://www.w3.org/2000/svg">
<g id="Interface / Shopping_Bag_02">
<path id="Vector" d="M8 8.74023H6.77734C5.47772 8.74023 4.82845 8.74023 4.36621 9.00538C3.96058 9.23805 3.64877 9.60558 3.48595 10.0439C3.30053 10.5432 3.40726 11.1836 3.62065 12.4639L3.62109 12.4663L4.55443 18.0663C4.71276 19.0163 4.79244 19.4915 5.02947 19.8479C5.23841 20.1621 5.5317 20.4105 5.87598 20.5649C6.26653 20.7401 6.74787 20.7402 7.71094 20.7402H16.2893C17.2524 20.7402 17.7334 20.7401 18.124 20.5649C18.4682 20.4105 18.7618 20.1621 18.9707 19.8479C19.2077 19.4915 19.287 19.0163 19.4453 18.0663L20.3786 12.4663L20.3796 12.4624C20.5928 11.1831 20.6995 10.543 20.5141 10.0439C20.3513 9.60558 20.0402 9.23805 19.6346 9.00538C19.1724 8.74023 18.522 8.74023 17.2224 8.74023H16M8 8.74023H16M8 8.74023C8 6.5311 9.79086 4.74023 12 4.74023C14.2091 4.74023 16 6.5311 16 8.74023" stroke="white" stroke-width="2" stroke-linecap="round" stroke-linejoin="round"/>
</g>
</svg>
