<svg width="21" height="21" viewBox="0 0 21 21" fill="none" xmlns="http://www.w3.org/2000/svg">
<path d="M15.0207 17.1823L19.1113 3.8877L19.1119 3.88631C19.3999 2.95029 19.544 2.48185 19.4279 2.16553C19.3267 1.88986 19.1094 1.67275 18.8337 1.57155C18.5173 1.45537 18.0486 1.5994 17.1116 1.8877L3.81704 5.97834C2.62523 6.34505 2.02928 6.52876 1.83169 6.845C1.66033 7.11925 1.63207 7.45912 1.75601 7.75781C1.89892 8.10223 2.45662 8.38131 3.57192 8.93897L8.76577 11.5359C8.93486 11.6204 9.02151 11.6637 9.09645 11.7215C9.1645 11.774 9.22504 11.8353 9.27749 11.9033C9.3366 11.98 9.38089 12.0681 9.46938 12.2451L12.0603 17.427C12.618 18.5423 12.8975 19.1004 13.2419 19.2433C13.5406 19.3673 13.8802 19.3386 14.1544 19.1673C14.4706 18.9697 14.6541 18.3737 15.0207 17.1823Z" fill="#6E34B8"/>
<path d="M9.30776 11.6914L14.1539 6.84522M19.1113 3.8877L15.0207 17.1823C14.6541 18.3737 14.4706 18.9697 14.1544 19.1673C13.8802 19.3386 13.5406 19.3673 13.2419 19.2433C12.8975 19.1004 12.618 18.5423 12.0603 17.427L9.46938 12.2451C9.38089 12.0681 9.3366 11.98 9.27749 11.9033C9.22504 11.8353 9.1645 11.774 9.09645 11.7215C9.02151 11.6637 8.93486 11.6204 8.76577 11.5359L3.57192 8.93897C2.45662 8.38131 1.89892 8.10223 1.75601 7.75781C1.63207 7.45912 1.66033 7.11925 1.83169 6.845C2.02928 6.52876 2.62523 6.34505 3.81704 5.97834L17.1116 1.8877C18.0486 1.5994 18.5173 1.45537 18.8337 1.57155C19.1094 1.67275 19.3267 1.88986 19.4279 2.16553C19.544 2.48185 19.3999 2.95029 19.1119 3.88631L19.1113 3.8877Z" stroke="#6E34B8" stroke-width="2" stroke-linecap="round" stroke-linejoin="round"/>
</svg>
