<svg width="22" height="22" viewBox="0 0 22 22" fill="none" xmlns="http://www.w3.org/2000/svg">
<path d="M19.3499 7.92098L18.9837 7.71725C18.9269 7.68561 18.8989 7.66974 18.8714 7.65328C18.5983 7.4897 18.3682 7.26368 18.2002 6.99328C18.1833 6.96607 18.1674 6.93754 18.1348 6.88114C18.1023 6.82482 18.0858 6.79628 18.0706 6.76803C17.92 6.48671 17.8385 6.1732 17.8336 5.85411C17.8331 5.82203 17.8332 5.78925 17.8343 5.72409L17.8415 5.29883C17.8529 4.6183 17.8587 4.27698 17.763 3.97067C17.6781 3.69858 17.536 3.44797 17.3462 3.2353C17.1317 2.9949 16.8347 2.82339 16.2402 2.48081L15.7464 2.19625C15.1536 1.85463 14.8571 1.68376 14.5423 1.61861C14.2639 1.56098 13.9765 1.56366 13.6991 1.62594C13.3859 1.69623 13.0931 1.87156 12.5079 2.22201L12.5045 2.22359L12.1507 2.43546C12.0948 2.46896 12.0665 2.48584 12.0384 2.50143C11.7601 2.65615 11.4495 2.7417 11.1312 2.75192C11.0992 2.75294 11.0665 2.75294 11.0013 2.75294C10.9365 2.75294 10.9024 2.75294 10.8704 2.75192C10.5515 2.74166 10.2402 2.65564 9.96151 2.50028C9.93342 2.48462 9.90563 2.4676 9.84957 2.43395L9.49349 2.22018C8.90422 1.86641 8.60915 1.68926 8.29427 1.61861C8.0157 1.55611 7.72737 1.55438 7.44791 1.61276C7.13236 1.67866 6.83577 1.8508 6.24258 2.19508L6.23994 2.19625L5.75228 2.47929L5.74688 2.48259C5.15904 2.82376 4.86441 2.99476 4.6517 3.23418C4.46294 3.44665 4.32185 3.69686 4.2374 3.96822C4.14194 4.27496 4.14703 4.61701 4.15853 5.30074L4.16568 5.7254C4.16676 5.78971 4.16864 5.82167 4.16817 5.85329C4.16343 6.17304 4.08086 6.48718 3.92974 6.76901C3.9148 6.79688 3.8987 6.82475 3.86654 6.88042C3.83436 6.93613 3.81877 6.96384 3.80209 6.99072C3.63336 7.26257 3.40214 7.48991 3.12733 7.65377C3.10015 7.66998 3.0715 7.68557 3.01521 7.71676L2.65365 7.91713C2.05208 8.2505 1.75137 8.41733 1.53256 8.65474C1.33898 8.86477 1.19275 9.1139 1.10349 9.38522C1.00259 9.69192 1.00267 10.0358 1.00424 10.7236L1.00551 11.2857C1.00706 11.9689 1.00919 12.3102 1.11032 12.6149C1.19979 12.8844 1.34495 13.132 1.53744 13.3408C1.75502 13.5768 2.05274 13.7425 2.64974 14.0747L3.00808 14.274C3.06907 14.3079 3.09976 14.3247 3.12917 14.3424C3.40148 14.5064 3.63089 14.7331 3.79818 15.0034C3.81625 15.0326 3.8336 15.0629 3.8683 15.1235C3.90256 15.1834 3.92009 15.2133 3.93594 15.2433C4.08261 15.521 4.16114 15.8295 4.16649 16.1435C4.16707 16.1774 4.16658 16.2118 4.16541 16.2807L4.15853 16.6882C4.14695 17.3743 4.1419 17.7178 4.23792 18.0253C4.32287 18.2974 4.46484 18.548 4.65463 18.7607C4.86915 19.0011 5.16655 19.1725 5.76107 19.5151L6.25478 19.7996C6.84763 20.1412 7.14395 20.3119 7.45869 20.377C7.73714 20.4347 8.02464 20.4324 8.30209 20.3701C8.61567 20.2997 8.90948 20.1238 9.49642 19.7724L9.85025 19.5605C9.90622 19.527 9.93457 19.5102 9.96261 19.4946C10.2409 19.3399 10.5512 19.2539 10.8695 19.2437C10.9015 19.2426 10.9342 19.2426 10.9994 19.2426C11.0648 19.2426 11.0974 19.2426 11.1295 19.2437C11.4484 19.2539 11.7607 19.3402 12.0394 19.4956C12.0639 19.5092 12.0885 19.524 12.1316 19.5499L12.5078 19.7757C13.0971 20.1296 13.3916 20.3062 13.7065 20.3768C13.985 20.4393 14.2736 20.4419 14.5531 20.3835C14.8685 20.3176 15.1657 20.1451 15.7586 19.801L16.2536 19.5138C16.8418 19.1724 17.1367 19.0012 17.3495 18.7617C17.5383 18.5492 17.6796 18.2991 17.764 18.0278C17.8588 17.7232 17.8531 17.3838 17.8417 16.71L17.8343 16.2705C17.8332 16.2062 17.8331 16.1742 17.8336 16.1425C17.8383 15.8228 17.9195 15.5084 18.0706 15.2266C18.0856 15.1988 18.1018 15.1707 18.1338 15.1152C18.166 15.0595 18.1827 15.0317 18.1994 15.0048C18.3681 14.733 18.5995 14.5055 18.8744 14.3416C18.9012 14.3256 18.9289 14.3103 18.9838 14.2798L18.9857 14.2789L19.3472 14.0786C19.9488 13.7452 20.2501 13.5782 20.4689 13.3408C20.6625 13.1308 20.8085 12.882 20.8978 12.6107C20.9981 12.3058 20.9973 11.9638 20.9958 11.2841L20.9945 10.7099C20.9929 10.0268 20.9921 9.68544 20.891 9.38082C20.8015 9.11132 20.6555 8.86366 20.463 8.6549C20.2457 8.41915 19.9475 8.2533 19.3517 7.92183L19.3499 7.92098Z" fill="#6E34B8"/>
<path d="M7.00033 10.998C7.00033 13.2071 8.79119 14.998 11.0003 14.998C13.2095 14.998 15.0003 13.2071 15.0003 10.998C15.0003 8.78887 13.2095 6.99801 11.0003 6.99801C8.79119 6.99801 7.00033 8.78887 7.00033 10.998Z" fill="#6E34B8"/>
<path d="M19.3499 7.92098L18.9837 7.71725C18.9269 7.68561 18.8989 7.66974 18.8714 7.65328C18.5983 7.4897 18.3682 7.26368 18.2002 6.99328C18.1833 6.96607 18.1674 6.93754 18.1348 6.88114C18.1023 6.82482 18.0858 6.79628 18.0706 6.76803C17.92 6.48671 17.8385 6.1732 17.8336 5.85411C17.8331 5.82203 17.8332 5.78925 17.8343 5.72409L17.8415 5.29883C17.8529 4.6183 17.8587 4.27698 17.763 3.97067C17.6781 3.69858 17.536 3.44797 17.3462 3.2353C17.1317 2.9949 16.8347 2.82339 16.2402 2.48081L15.7464 2.19625C15.1536 1.85463 14.8571 1.68376 14.5423 1.61861C14.2639 1.56098 13.9765 1.56366 13.6991 1.62594C13.3859 1.69623 13.0931 1.87156 12.5079 2.22201L12.5045 2.22359L12.1507 2.43546C12.0948 2.46896 12.0665 2.48584 12.0384 2.50143C11.7601 2.65615 11.4495 2.7417 11.1312 2.75192C11.0992 2.75294 11.0665 2.75294 11.0013 2.75294C10.9365 2.75294 10.9024 2.75294 10.8704 2.75192C10.5515 2.74166 10.2402 2.65564 9.96151 2.50028C9.93342 2.48462 9.90563 2.4676 9.84957 2.43395L9.49349 2.22018C8.90422 1.86641 8.60915 1.68926 8.29427 1.61861C8.0157 1.55611 7.72737 1.55438 7.44791 1.61276C7.13236 1.67866 6.83577 1.8508 6.24258 2.19508L6.23994 2.19625L5.75228 2.47929L5.74688 2.48259C5.15904 2.82376 4.86441 2.99476 4.6517 3.23418C4.46294 3.44665 4.32185 3.69686 4.2374 3.96822C4.14194 4.27496 4.14703 4.61701 4.15853 5.30074L4.16568 5.7254C4.16676 5.78971 4.16864 5.82167 4.16817 5.85329C4.16343 6.17304 4.08086 6.48718 3.92974 6.76901C3.9148 6.79688 3.8987 6.82475 3.86654 6.88042C3.83436 6.93613 3.81877 6.96384 3.80209 6.99072C3.63336 7.26257 3.40214 7.48991 3.12733 7.65377C3.10015 7.66998 3.0715 7.68557 3.01521 7.71676L2.65365 7.91713C2.05208 8.2505 1.75137 8.41733 1.53256 8.65474C1.33898 8.86477 1.19275 9.1139 1.10349 9.38522C1.00259 9.69192 1.00267 10.0358 1.00424 10.7236L1.00551 11.2857C1.00706 11.9689 1.00919 12.3102 1.11032 12.6149C1.19979 12.8844 1.34495 13.132 1.53744 13.3408C1.75502 13.5768 2.05274 13.7425 2.64974 14.0747L3.00808 14.274C3.06907 14.3079 3.09976 14.3247 3.12917 14.3424C3.40148 14.5064 3.63089 14.7331 3.79818 15.0034C3.81625 15.0326 3.8336 15.0629 3.8683 15.1235C3.90256 15.1834 3.92009 15.2133 3.93594 15.2433C4.08261 15.521 4.16114 15.8295 4.16649 16.1435C4.16707 16.1774 4.16658 16.2118 4.16541 16.2807L4.15853 16.6882C4.14695 17.3743 4.1419 17.7178 4.23792 18.0253C4.32287 18.2974 4.46484 18.548 4.65463 18.7607C4.86915 19.0011 5.16655 19.1725 5.76107 19.5151L6.25478 19.7996C6.84763 20.1412 7.14395 20.3119 7.45869 20.377C7.73714 20.4347 8.02464 20.4324 8.30209 20.3701C8.61567 20.2997 8.90948 20.1238 9.49642 19.7724L9.85025 19.5605C9.90622 19.527 9.93457 19.5102 9.96261 19.4946C10.2409 19.3399 10.5512 19.2539 10.8695 19.2437C10.9015 19.2426 10.9342 19.2426 10.9994 19.2426C11.0648 19.2426 11.0974 19.2426 11.1295 19.2437C11.4484 19.2539 11.7607 19.3402 12.0394 19.4956C12.0639 19.5092 12.0885 19.524 12.1316 19.5499L12.5078 19.7757C13.0971 20.1296 13.3916 20.3062 13.7065 20.3768C13.985 20.4393 14.2736 20.4419 14.5531 20.3835C14.8685 20.3176 15.1657 20.1451 15.7586 19.801L16.2536 19.5138C16.8418 19.1724 17.1367 19.0012 17.3495 18.7617C17.5383 18.5492 17.6796 18.2991 17.764 18.0278C17.8588 17.7232 17.8531 17.3838 17.8417 16.71L17.8343 16.2705C17.8332 16.2062 17.8331 16.1742 17.8336 16.1425C17.8383 15.8228 17.9195 15.5084 18.0706 15.2266C18.0856 15.1988 18.1018 15.1707 18.1338 15.1152C18.166 15.0595 18.1827 15.0317 18.1994 15.0048C18.3681 14.733 18.5995 14.5055 18.8744 14.3416C18.9012 14.3256 18.9289 14.3103 18.9838 14.2798L18.9857 14.2789L19.3472 14.0786C19.9488 13.7452 20.2501 13.5782 20.4689 13.3408C20.6625 13.1308 20.8085 12.882 20.8978 12.6107C20.9981 12.3058 20.9973 11.9638 20.9958 11.2841L20.9945 10.7099C20.9929 10.0268 20.9921 9.68544 20.891 9.38082C20.8015 9.11132 20.6555 8.86366 20.463 8.6549C20.2457 8.41915 19.9475 8.2533 19.3517 7.92183L19.3499 7.92098Z" stroke="#F1EBF8" stroke-width="2" stroke-linecap="round" stroke-linejoin="round"/>
<path d="M7.00033 10.998C7.00033 13.2071 8.79119 14.998 11.0003 14.998C13.2095 14.998 15.0003 13.2071 15.0003 10.998C15.0003 8.78887 13.2095 6.99801 11.0003 6.99801C8.79119 6.99801 7.00033 8.78887 7.00033 10.998Z" stroke="#F1EBF8" stroke-width="2" stroke-linecap="round" stroke-linejoin="round"/>
</svg>
